<?xml version="1.0" standalone="no"?>
<!DOCTYPE svg PUBLIC "-//W3C//DTD SVG 20010904//EN"
 "http://www.w3.org/TR/2001/REC-SVG-20010904/DTD/svg10.dtd">
<svg version="1.0" xmlns="http://www.w3.org/2000/svg"
 width="2369.000000pt" height="2369.000000pt" viewBox="0 0 2369.000000 2369.000000"
 preserveAspectRatio="xMidYMid meet">

<g transform="translate(0.000000,2369.000000) scale(0.100000,-0.100000)"
fill="#000000" stroke="none">
<path d="M16782 21763 c-42 -72 -337 -597 -392 -698 -18 -33 -52 -94 -75 -135
-162 -288 -718 -1316 -1040 -1925 -23 -44 -84 -158 -135 -254 -109 -206 -255
-484 -427 -816 -69 -132 -149 -285 -178 -340 -84 -160 -458 -890 -716 -1395
l-237 -465 -902 -5 -903 -5 -77 -165 c-130 -280 -275 -591 -322 -690 -65 -137
-160 -338 -383 -815 -109 -231 -230 -490 -270 -575 -40 -85 -139 -297 -220
-470 -81 -173 -149 -317 -151 -319 -2 -2 -22 36 -45 85 -40 87 -121 260 -261
559 -127 269 -150 319 -178 380 -15 33 -46 98 -67 145 -22 47 -105 222 -183
390 -78 168 -210 449 -292 625 -83 176 -200 426 -260 555 -60 129 -116 250
-125 268 l-15 32 -1184 0 c-651 0 -1184 -3 -1184 -7 0 -3 70 -141 156 -307 86
-166 197 -380 247 -476 49 -96 122 -238 162 -315 40 -77 142 -275 228 -440 85
-165 223 -433 307 -595 84 -162 224 -434 312 -605 88 -170 195 -377 238 -460
43 -82 148 -285 233 -450 336 -651 473 -916 547 -1060 107 -207 356 -689 512
-992 l130 -253 514 0 514 0 -24 -52 c-13 -29 -126 -269 -251 -533 -125 -264
-300 -637 -390 -830 -89 -192 -181 -388 -203 -435 -124 -266 -609 -1321 -707
-1540 -24 -52 -57 -126 -75 -165 -204 -443 -805 -1795 -1087 -2445 -397 -916
-909 -2137 -900 -2146 2 -2 33 49 69 114 36 64 107 191 158 282 155 276 329
591 567 1025 366 667 991 1843 1383 2600 51 99 114 221 140 270 672 1276 2214
4365 3115 6240 34 72 92 191 127 265 107 221 320 667 588 1230 694 1458 1669
3573 2225 4830 62 140 174 393 249 563 75 169 136 309 136 312 0 2 13 32 29
67 170 369 1030 2408 1016 2408 -2 0 -22 -30 -43 -67z"/>
<path d="M14305 13674 c-110 -7 -359 -35 -450 -50 -102 -17 -374 -81 -392 -92
-7 -4 -41 -68 -76 -142 -62 -131 -226 -471 -370 -770 -38 -80 -98 -203 -132
-275 -67 -139 -150 -311 -290 -600 -48 -99 -116 -241 -152 -315 -36 -74 -123
-254 -194 -399 -71 -145 -129 -270 -129 -276 0 -7 22 -46 48 -86 134 -204 309
-357 556 -485 204 -105 348 -150 876 -270 591 -135 741 -187 857 -301 31 -30
65 -76 81 -110 24 -53 27 -69 27 -173 0 -110 -2 -119 -32 -181 -41 -83 -102
-140 -196 -185 -95 -45 -183 -63 -347 -70 -488 -23 -1042 145 -1613 490 -71
42 -133 76 -138 74 -6 -2 -63 -107 -128 -233 -64 -127 -233 -456 -374 -731
-141 -276 -257 -506 -257 -511 0 -10 320 -186 420 -231 36 -16 90 -41 120 -55
332 -153 787 -289 1160 -346 548 -85 1202 -63 1689 55 762 185 1327 601 1616
1189 260 528 275 1216 40 1710 -151 315 -395 557 -740 732 -233 118 -460 191
-843 273 -559 120 -661 155 -783 267 -79 74 -104 133 -103 243 3 268 196 411
572 424 328 12 707 -76 1060 -244 l122 -59 16 32 c25 48 230 439 284 542 26
50 103 196 170 325 68 129 149 284 182 344 32 61 55 113 51 117 -12 10 -295
113 -408 148 -350 106 -641 166 -1010 206 -134 15 -659 27 -790 19z"/>
</g>
</svg>
